:SAMPLES-PER-SECOND 30
:FRAME-RANGE 1-4244
:FULLY-SPECIFIED
:DEGREES
1062
root  35.5887 37.4596 4.38671 -173.935 57.5011 174.54
RightUpLeg  -9.80421 -11.4201 -16.8682
RightLeg  27.4715 -1.9595 -1.33162
RightFoot  -21.6311 1.69131 20.2326
RightToes  -1.33073e-015 0 -3.6325e-017
Spine  8.12093 -0.201744 7.36807
Spine1  0.474647 0.250915 -1.73736
HEad  -15.3598 40.818 -28.0774
LeftShoulder1  1.56076 -2.81679 -19.2333
LeftArm  -2.56371 1.90438 -38.2003
LeftForeArm  74.3324 -78.1054 -48.0401
LeftHand  -0.1276 4.30609 12.3273
RightShoulder  1.79416 4.33776 16.8969
RightArm  29.2549 22.3571 63.6547
RightForeArm  120.696 81.2961 89.847
RightHand  0.122066 -6.83169 -11.6858
LeftUpLeg  -39.7221 22.6257 4.20546
LeftLeg  19.4767 16.5051 6.5675
LeftFoot  -1.2593 0.269366 -2.96822
LeftToes  2.72522e-012 8.43823e-011 6.24977e-012
1063
root  35.5711 37.1401 3.52851 -173.284 55.7557 175.688
RightUpLeg  -8.05575 -12.673 -17.8066
RightLeg  27.831 -1.67485 -1.18561
RightFoot  -22.1052 1.92603 21.8051
RightToes  -1.33073e-015 0 -3.6325e-017
Spine  7.82387 0.368147 9.21184
Spine1  0.320624 1.15655 -3.25598
HEad  -14.3727 39.2079 -26.7652
LeftShoulder1  1.39833 -2.21694 -19.045
LeftArm  -3.53726 4.88284 -35.3057
LeftForeArm  73.4867 -77.8488 -46.4447
LeftHand  -0.151545 4.04765 12.0856
RightShoulder  1.87188 4.81574 16.4432
RightArm  29.6893 25.8877 64.3766
RightForeArm  102.211 80.8117 70.7148
RightHand  0.106185 -6.76269 -10.9876
LeftUpLeg  -38.1797 18.809 8.6942
LeftLeg  15.0211 26.7618 6.2438
LeftFoot  -1.70514 0.197256 -2.21882
LeftToes  2.72522e-012 8.43823e-011 6.24977e-012
1064
root  35.5871 36.7818 2.4957 -172.392 54.1161 177.487
RightUpLeg  -5.42723 -13.3194 -18.6254
RightLeg  27.4574 -1.44598 -1.04103
RightFoot  -22.3119 2.17801 23.9458
RightToes  -1.33073e-015 0 -3.6325e-017
Spine  7.52845 1.31125 11.4473
Spine1  0.335922 2.45589 -4.81459
HEad  -13.1534 37.0256 -24.8393
LeftShoulder1  1.27551 -1.78989 -18.7318
LeftArm  -4.71406 8.32728 -31.8738
LeftForeArm  75.3699 -78.0489 -47.1227
LeftHand  -0.137422 4.22463 12.4845
RightShoulder  1.94345 5.30437 15.9303
RightArm  30.3466 30.1974 64.9068
RightForeArm  85.223 79.3177 54.2451
RightHand  0.0864613 -6.49688 -11.4095
LeftUpLeg  -37.6942 17.8871 11.1265
LeftLeg  12.2878 34.4432 5.59396
LeftFoot  -3.06898 0.129068 -1.52957
LeftToes  2.72522e-012 8.43823e-011 6.24977e-012
1065
root  35.6533 36.4202 1.24688 -171.815 52.7409 179.034
RightUpLeg  -1.96773 -13.6673 -19.9338
RightLeg  25.9836 -0.988407 -0.746397
RightFoot  -21.9761 2.34001 26.3237
RightToes  -1.33073e-015 0 -3.6325e-017
Spine  7.32052 2.49099 13.6553
Spine1  0.00373148 4.0574 -6.82315
HEad  -11.9313 34.5208 -22.4094
LeftShoulder1  1.05658 -1.04364 -17.9298
LeftArm  -5.58232 11.6682 -28.3863
LeftForeArm  72.7594 -77.9081 -47.2082
LeftHand  -0.13469 4.26435 12.6428
RightShoulder  1.967 5.72696 15.0641
RightArm  31.9985 35.824 69.0663
RightForeArm  65.8134 74.7694 34.008
RightHand  0.0958924 -6.53315 -11.9495
LeftUpLeg  -37.9507 18.6006 11.5503
LeftLeg  12.0003 38.8187 5.92245
LeftFoot  -4.41404 0.0606653 -0.563331
LeftToes  2.72522e-012 8.43823e-011 6.24977e-012
1066
root  35.814 36.2245 -0.235443 -172.188 51.2623 179.776
RightUpLeg  2.85424 -14.0996 -22.1996
RightLeg  23.0613 -0.091712 -0.258308
RightFoot  -19.8358 2.1047 29.548
RightToes  -1.33073e-015 0 -3.6325e-017
Spine  6.5375 4.05103 14.7242
Spine1  0.527306 5.97983 -8.56011
HEad  -11.0151 30.9725 -18.843
LeftShoulder1  0.820815 -0.292605 -16.3169
LeftArm  -6.60462 14.1383 -25.9212
LeftForeArm  70.5824 -77.5383 -45.4748
LeftHand  -0.135819 4.16182 11.6518
RightShoulder  2.04135 6.42641 14.192
RightArm  32.3369 40.9265 72.4394
RightForeArm  54.8262 67.9416 21.8411
RightHand  0.0587867 -6.06905 -13.2644
LeftUpLeg  -38.8776 21.6261 8.98261
LeftLeg  14.7649 37.4824 7.32624
LeftFoot  -3.86209 -0.0326929 0.856507
LeftToes  2.72522e-012 8.43823e-011 6.24977e-012
1067
root  36.0261 36.1661 -1.98881 -172.83 49.4908 -179.422
RightUpLeg  8.00113 -13.8135 -24.8875
RightLeg  20.5768 1.41561 0.377509
RightFoot  -15.4431 1.15154 34.1418
RightToes  -1.33073e-015 0 -3.6325e-017
Spine  6.60757 5.92738 15.5747
Spine1  -0.557216 8.19821 -10.5698
HEad  -8.46485 27.1043 -14.3036
LeftShoulder1  0.628711 0.334688 -14.5109
LeftArm  -6.85686 15.5307 -24.0277
LeftForeArm  71.4441 -77.3211 -43.7275
LeftHand  -0.107038 4.44342 11.443
RightShoulder  2.08103 7.07596 13.1724
RightArm  31.0101 44.0966 74.1732
RightForeArm  46.9002 58.2734 13.9641
RightHand  -0.0389789 -5.20163 -15.0106
LeftUpLeg  -42.9081 30.5115 0.935326
LeftLeg  20.2516 26.0336 10.0207
LeftFoot  -0.53215 -0.0166399 0.209913
LeftToes  2.72522e-012 8.43823e-011 6.24977e-012
1068
root  36.2303 36.2322 -4.00545 -174.206 46.0702 -179.426
RightUpLeg  12.5192 -12.5189 -28.0502
RightLeg  20.5404 2.72725 0.920166
RightFoot  -8.3937 -1.07646 38.1755
RightToes  -1.33073e-015 0 -3.6325e-017
Spine  6.06323 7.59423 15.9463
Spine1  -1.59286 9.929 -12.4714
HEad  -5.37868 21.6489 -8.65826
LeftShoulder1  0.503181 0.801279 -13.3339
LeftArm  -5.85089 12.7335 -21.8034
LeftForeArm  65.1606 -75.8984 -38.4673
LeftHand  -0.0770918 4.74691 11.2005
RightShoulder  2.10331 7.74683 12.0539
RightArm  26.4806 45.9569 72.4196
RightForeArm  41.7348 45.9084 8.62622
RightHand  -0.208505 -4.06149 -17.3246
LeftUpLeg  -44.2124 31.7985 -2.02711
LeftLeg  27.202 21.215 11.7354
LeftFoot  -2.10118 0.0669525 -0.671894
LeftToes  2.72522e-012 8.43823e-011 6.24977e-012
